<?xml version="1.0" encoding="utf-8"?>
<!-- Generator: Adobe Illustrator 26.4.1, SVG Export Plug-In . SVG Version: 6.00 Build 0)  -->
<svg version="1.1" xmlns="http://www.w3.org/2000/svg" xmlns:xlink="http://www.w3.org/1999/xlink" x="0px" y="0px"
	 viewBox="0 0 502.72 285.02" style="enable-background:new 0 0 502.72 285.02;" xml:space="preserve">
<style type="text/css">
	.st0{fill:none;stroke:#E4335A;stroke-miterlimit:10;}
	.st1{fill:#636260;}
	.st2{font-family:'Biennale-Regular';}
	.st3{font-size:44.2442px;}
	.st4{font-family:'Biennale-Bold';}
	.st5{fill:#800000;}
	.st6{fill:#07A788;}
	.st7{font-size:18.1202px;}
</style>
<g id="Layer_1">
	<line class="st0" x1="-3349.69" y1="-233.83" x2="-3349.69" y2="-233.84"/>
	<g>
		<text transform="matrix(1 0 0 1 6.4033 253.8573)"><tspan x="0" y="0" class="st1 st2 st3">NxGen</tspan><tspan x="140.79" y="0" class="st1 st4 st3"> </tspan><tspan x="149.46" y="0" class="st5 st4 st3">C      ACH</tspan><tspan x="308.29" y="0" class="st1 st4 st3"> </tspan><tspan x="316.96" y="0" class="st1 st2 st3">Network</tspan></text>
		<g>
			<path class="st1" d="M206.89,226.22c7.29,0,13.22,5.93,13.22,13.22s-5.93,13.22-13.22,13.22s-13.22-5.93-13.22-13.22
				S199.61,226.22,206.89,226.22L206.89,226.22z M206.89,223.82c-8.62,0-15.62,6.99-15.62,15.62s6.99,15.62,15.62,15.62
				s15.62-6.99,15.62-15.62S215.52,223.82,206.89,223.82L206.89,223.82z"/>
			<path class="st1" d="M203.17,234.02c4.54,0,8.24,3.7,8.24,8.24c0,4.54-3.7,8.24-8.24,8.24s-8.24-3.7-8.24-8.24
				C194.93,237.71,198.63,234.02,203.17,234.02L203.17,234.02z M203.17,231.62c-5.88,0-10.64,4.76-10.64,10.64
				c0,5.88,4.76,10.64,10.64,10.64s10.64-4.76,10.64-10.64C213.82,236.38,209.05,231.62,203.17,231.62L203.17,231.62z"/>
			<path class="st1" d="M199.25,241.2c1.95,0,3.54,1.59,3.54,3.54c0,1.95-1.59,3.54-3.54,3.54c-1.95,0-3.54-1.59-3.54-3.54
				C195.71,242.79,197.3,241.2,199.25,241.2L199.25,241.2z M199.25,238.8c-3.28,0-5.94,2.66-5.94,5.94c0,3.28,2.66,5.94,5.94,5.94
				c3.28,0,5.94-2.66,5.94-5.94C205.19,241.46,202.53,238.8,199.25,238.8L199.25,238.8z"/>
		</g>
		<g>
			<g>
				<g>
					<g>
						<path class="st5" d="M291.14,73.63c0,0.15,0,0.29-0.01,0.44c-0.1,2.59-1.05,4.97-2.6,6.85c0,0-0.01,0-0.01,0.01
							c-2.1,2.54-5.27,4.16-8.83,4.16c-3.56,0-6.73-1.62-8.83-4.16c0-0.01-0.01-0.01-0.01-0.01c-1.54-1.87-2.5-4.24-2.6-6.82v-0.03
							c-0.01-0.15-0.01-0.29-0.01-0.44c0-6.32,5.12-11.45,11.45-11.45C286.02,62.18,291.14,67.3,291.14,73.63z"/>
						<g>
							<path class="st1" d="M287.34,128.26c-1.89-6.91-2.91-14.19-2.91-21.7c0-7.16,0.92-14.1,2.64-20.71
								c-2.2,1.33-4.74,2.05-7.38,2.05c-2.64,0-5.18-0.72-7.38-2.05c1.72,6.61,2.64,13.55,2.64,20.71c0,7.52-1.01,14.79-2.91,21.7
								c2.26-1.44,4.91-2.24,7.64-2.24C282.43,126.02,285.08,126.82,287.34,128.26z"/>
						</g>
						<path class="st5" d="M291.14,140.3c0,6.32-5.12,11.45-11.45,11.45c-6.32,0-11.45-5.12-11.45-11.45c0-0.48,0.03-0.95,0.08-1.41
							l0.01-0.01v-0.01c0.24-1.93,0.96-3.71,2.04-5.23v-0.01c2.08-2.9,5.47-4.8,9.32-4.8c3.84,0,7.24,1.89,9.32,4.8
							c1.08,1.51,1.8,3.29,2.04,5.23C291.11,139.34,291.14,139.81,291.14,140.3z"/>
					</g>
					<g>
						<path class="st5" d="M225.72,139.5c0,6.32-5.12,11.45-11.45,11.45c-2.97,0-5.67-1.13-7.7-2.98c-0.1-0.09-0.2-0.18-0.29-0.28
							c-0.16-0.16-0.33-0.33-0.48-0.5c-1.85-2.03-2.98-4.74-2.98-7.7c0-0.14,0-0.28,0.01-0.42c0.09-2.61,1.06-5,2.62-6.88v-0.01
							c2.1-2.53,5.28-4.14,8.82-4.14c3.57,0,6.76,1.63,8.86,4.19c1.53,1.85,2.47,4.2,2.58,6.76v0.02
							C225.71,139.18,225.72,139.34,225.72,139.5z"/>
						<g>
							<path class="st1" d="M206.9,85.85c1.72,6.61,2.64,13.55,2.64,20.71c0,7.16-0.92,14.1-2.65,20.72
								c2.2-1.33,4.74-2.05,7.38-2.05c2.65,0,5.2,0.73,7.4,2.07c-1.73-6.62-2.65-13.57-2.65-20.74c0-7.16,0.92-14.1,2.64-20.72
								c-2.2,1.33-4.74,2.06-7.39,2.06C211.63,87.9,209.1,87.18,206.9,85.85z"/>
						</g>
						<path class="st5" d="M225.72,73.63c0,0.16-0.01,0.31-0.01,0.47c-0.1,2.58-1.05,4.94-2.59,6.8c-2.1,2.55-5.28,4.18-8.84,4.18
							c-3.55,0-6.71-1.61-8.82-4.14c-1.56-1.89-2.54-4.28-2.63-6.91c-0.01-0.14-0.01-0.28-0.01-0.41c0-2.97,1.13-5.67,2.98-7.7
							c0.14-0.15,0.27-0.29,0.41-0.42c2.07-2.06,4.92-3.33,8.07-3.33C220.59,62.18,225.72,67.3,225.72,73.63z"/>
					</g>
					<g>
						<g>
							<path class="st1" d="M245.77,97.88c-5.78-7.54-11.53-15.46-17.25-23.7l0,0.03c-0.12,3.14-1.24,6.07-3.23,8.49
								c-0.91,1.11-1.97,2.05-3.13,2.83c5.93,6.3,11.94,13.26,18.01,20.76c0.72-0.88,1.43-1.78,2.09-2.72
								C243.57,101.74,244.73,99.84,245.77,97.88z"/>
							<path class="st1" d="M253.69,107.94c-0.65,0.8-1.28,1.61-1.88,2.45c-1.37,1.92-2.59,3.93-3.67,6
								c5.72,7.43,11.49,15.28,17.29,23.48c0.01-0.45,0.04-0.89,0.09-1.32l0.12-0.96l0.05-0.05c0.33-1.67,0.96-3.29,1.86-4.74v-0.06
								l0.53-0.74c0.98-1.36,2.18-2.53,3.53-3.45C265.6,122.16,259.63,115.26,253.69,107.94z"/>
						</g>
						<path class="st5" d="M265.7,93.56c2.37-3.32,1.6-7.93-1.71-10.3c-3.32-2.37-7.93-1.6-10.3,1.71
							c-0.18,0.25-0.34,0.51-0.48,0.77l0,0.01l0,0.01c-0.6,1.1-0.89,2.31-0.89,3.51l0,0c0,2.3,1.07,4.57,3.09,6.01
							c2.02,1.44,4.51,1.72,6.69,0.97c1.13-0.39,2.18-1.05,3.03-1.98C265.33,94.05,265.52,93.82,265.7,93.56z"/>
						<g>
							<path class="st1" d="M253.76,97.57c-1.31-0.94-2.36-2.17-3.09-3.56c-1.55,3.88-3.57,7.64-6.11,11.18
								c-2.41,3.38-5.15,6.37-8.14,9c1.51,0.26,2.94,0.85,4.21,1.75c1.27,0.91,2.29,2.08,3.02,3.41c1.52-3.67,3.47-7.24,5.88-10.61
								c2.53-3.55,5.43-6.68,8.59-9.39C256.56,99.11,255.07,98.51,253.76,97.57z"/>
						</g>
						<path class="st5" d="M240.7,128.55c0.05-0.08,0.11-0.15,0.16-0.23c0.92-1.4,1.31-3,1.2-4.57c0,0,0,0,0-0.01
							c-0.15-2.12-1.21-4.16-3.07-5.49c-1.87-1.33-4.14-1.68-6.19-1.13c0,0-0.01,0-0.01,0c-1.51,0.4-2.9,1.29-3.92,2.6l-0.01,0.01
							c-0.06,0.07-0.12,0.15-0.17,0.23c-2.37,3.32-1.6,7.93,1.71,10.3C233.72,132.63,238.33,131.87,240.7,128.55z"/>
					</g>
				</g>
				<g>
					<polygon class="st6" points="314.41,127.41 314.41,127.41 322.89,128.81 322.89,128.81 					"/>
					<g>
						<path class="st1" d="M235.54,176.51c-38.35-6.31-64.41-42.64-58.11-80.98c6.31-38.35,42.64-64.41,80.98-58.11
							c27.81,4.57,49.15,24.94,56.38,50.42l9.19,1.51c-6.98-30.33-31.62-55-64.18-60.35c-42.99-7.07-83.72,22.15-90.79,65.14
							c-7.07,42.99,22.15,83.72,65.14,90.79c39.91,6.56,77.84-18.16,88.74-56.12l-8.49-1.4
							C304.33,160.73,270.8,182.31,235.54,176.51z"/>
						<path class="st1" d="M322.9,128.81c0.54-1.92,1.02-5.05,1.09-7.63l-9.06-0.05l-15.94-0.08l-5.39-0.03l-0.04,7.63l20.75,0.11
							c0,0,0,0,0,0L322.9,128.81z"/>
					</g>
				</g>
			</g>
			<g>
				<path class="st5" d="M245.97,200.68c-51.76,0-93.72-41.96-93.72-93.72c0-51.76,41.96-93.72,93.72-93.72
					c36.89,0,68.79,21.33,84.08,52.31h8.54c-15.88-35.37-51.4-60.08-92.62-60.08c-55.96,0-101.48,45.53-101.48,101.48
					s45.53,101.48,101.48,101.48c41.21,0,76.74-24.71,92.62-60.08h-8.54C314.76,179.36,282.86,200.68,245.97,200.68z"/>
			</g>
		</g>
		<text transform="matrix(1 0 0 1 46.4023 274.2293)"><tspan x="0" y="0" class="st5 st4 st7">C</tspan><tspan x="13.28" y="0" class="st5 st2 st7">reating </tspan><tspan x="79.42" y="0" class="st5 st4 st7">O</tspan><tspan x="93.77" y="0" class="st5 st2 st7">pportunity </tspan><tspan x="187.89" y="0" class="st5 st4 st7">A</tspan><tspan x="199.72" y="0" class="st5 st2 st7">nd </tspan><tspan x="226.58" y="0" class="st5 st4 st7">C</tspan><tspan x="239.86" y="0" class="st5 st2 st7">ultivating </tspan><tspan x="324.73" y="0" class="st5 st4 st7">H</tspan><tspan x="337.25" y="0" class="st5 st2 st7">umanity</tspan></text>
	</g>
</g>
<g id="Layer_2">
</g>
</svg>
