<?xml version="1.0" encoding="utf-8"?>
<!-- Generator: Adobe Illustrator 26.4.1, SVG Export Plug-In . SVG Version: 6.00 Build 0)  -->
<svg version="1.1" xmlns="http://www.w3.org/2000/svg" xmlns:xlink="http://www.w3.org/1999/xlink" x="0px" y="0px"
	 viewBox="0 0 502.72 267.75" style="enable-background:new 0 0 502.72 267.75;" xml:space="preserve">
<style type="text/css">
	.st0{fill:none;stroke:#E4335A;stroke-miterlimit:10;}
	.st1{fill:#636260;}
	.st2{fill:#800000;}
	.st3{fill:#07A788;}
</style>
<g id="Layer_1">
	<line class="st0" x1="-5498.93" y1="-242.46" x2="-5498.93" y2="-242.47"/>
	<g>
		<g>
			<path class="st1" d="M35.01,226.72v30.75h-3.14l-16.24-24.16v24.16h-3.76v-30.75h3.14l16.24,24.21v-24.21H35.01z"/>
			<path class="st1" d="M57.31,257.47l-7.3-9.38l-7.35,9.38h-4.03l9.34-12.04l-8.76-11.28h4.2l6.9,8.89l6.81-8.89h4.07L52.4,245.7
				l9.12,11.77H57.31z"/>
			<path class="st1" d="M78.06,257.96c-8.81,0-15.31-6.59-15.31-15.84c0-9.29,6.55-15.89,15.31-15.89c7.21,0,11.77,3.98,13.85,9.38
				l-3.63,1.5c-1.73-4.69-5.22-7.3-10.31-7.3c-6.59,0-11.37,5.04-11.37,12.35c0,7.35,4.78,12.39,11.77,12.39
				c5.89,0,10.22-3.67,11.2-10.09H77.97v-2.92h15.22C93.19,251.67,86.64,257.96,78.06,257.96z"/>
			<path class="st1" d="M108.54,254.46c3.8,0,5.93-1.46,7.08-4.16l3.27,1.99c-1.73,3.32-4.96,5.71-10.49,5.71
				c-7.17,0-12.04-5.22-12.04-12.17c0-6.77,5.18-12.21,11.77-12.21c7.04,0,11.5,5.53,11.5,11.68c0,0.66-0.04,1.46-0.09,1.9h-19.38
				C100.84,251.54,104.25,254.46,108.54,254.46z M115.8,243.93c-0.58-4.38-3.63-7.04-7.52-7.04c-3.94,0-7.35,2.61-8.05,7.04H115.8z"
				/>
			<path class="st1" d="M145.36,243.22v14.25h-3.76v-13.58c0-4.34-2.52-6.9-6.68-6.86c-3.98,0-6.81,2.88-6.86,6.02v14.43h-3.76
				v-23.32h3.54v3.41c1.5-2.21,4.34-3.89,8.05-3.89C141.86,233.66,145.36,237.42,145.36,243.22z"/>
			<path class="st2" d="M158.36,242.11c0-9.29,6.81-15.97,15.84-15.97c7.92,0,12.79,4.87,14.42,10.04l-6.33,2.57
				c-1.06-3.85-3.76-6.37-8.28-6.37c-5.27,0-8.98,3.89-8.98,9.74c0,5.8,3.72,9.69,9.03,9.69c4.51,0,7.17-2.48,8.23-6.37l6.33,2.57
				c-1.68,5.35-6.59,10.04-14.47,10.04C165.17,258.04,158.36,251.36,158.36,242.11z"/>
			<path class="st2" d="M243.98,250.88h-11.42l-2.17,6.59h-6.5l10.35-30.75h8.01l10.35,30.75h-6.46L243.98,250.88z M242.2,245.52
				l-3.94-11.9l-3.94,11.9H242.2z"/>
			<path class="st2" d="M253,242.11c0-9.29,6.81-15.97,15.84-15.97c7.92,0,12.79,4.87,14.43,10.04l-6.33,2.57
				c-1.06-3.85-3.76-6.37-8.28-6.37c-5.27,0-8.98,3.89-8.98,9.74c0,5.8,3.72,9.69,9.03,9.69c4.51,0,7.17-2.48,8.23-6.37l6.33,2.57
				c-1.68,5.35-6.59,10.04-14.47,10.04C259.81,258.04,253,251.36,253,242.11z"/>
			<path class="st2" d="M311.67,226.72v30.75h-6.59v-12.74h-11.73v12.74h-6.59v-30.75h6.59v12.12h11.73v-12.12H311.67z"/>
			<path class="st1" d="M349.94,226.72v30.75h-3.14l-16.24-24.16v24.16h-3.76v-30.75h3.14l16.24,24.21v-24.21H349.94z"/>
			<path class="st1" d="M366.88,254.46c3.8,0,5.93-1.46,7.08-4.16l3.27,1.99c-1.73,3.32-4.96,5.71-10.49,5.71
				c-7.17,0-12.04-5.22-12.04-12.17c0-6.77,5.18-12.21,11.77-12.21c7.04,0,11.5,5.53,11.5,11.68c0,0.66-0.04,1.46-0.09,1.9h-19.38
				C359.18,251.54,362.59,254.46,366.88,254.46z M374.14,243.93c-0.58-4.38-3.63-7.04-7.52-7.04c-3.94,0-7.35,2.61-8.05,7.04H374.14
				z"/>
			<path class="st1" d="M383.78,249.64v-12.26h-4.25v-3.23h2.43c1.42,0,2.08-0.71,2.08-2.12v-3.85h3.63v5.97h6.9v3.23h-7.04v11.86
				c0,3.14,1.64,4.91,4.65,4.91h2.74v3.32h-3.41C386.48,257.47,383.78,254.46,383.78,249.64z"/>
			<path class="st1" d="M429.09,234.15l-6.37,23.32h-4.42l-5.8-19.07l-5.71,19.07h-4.47l-6.37-23.32h3.89l4.91,19.56l5.66-19.56h4.2
				l5.66,19.47l4.87-19.47H429.09z"/>
			<path class="st1" d="M431.04,245.83c0-6.99,5.04-12.17,12.12-12.17s12.12,5.18,12.12,12.17c0,6.95-5.04,12.12-12.12,12.12
				S431.04,252.78,431.04,245.83z M451.52,245.83c0-5.13-3.36-8.81-8.32-8.81s-8.36,3.67-8.36,8.81c0,5.09,3.41,8.76,8.36,8.76
				C448.12,254.59,451.52,250.92,451.52,245.83z"/>
			<path class="st1" d="M471.12,233.66v3.5c-4.25,0.04-7.21,2.92-7.21,6.24v14.07h-3.76v-23.32h3.54v3.41
				C465.19,235.39,467.85,233.66,471.12,233.66z"/>
			<path class="st1" d="M490.24,257.47l-11.5-11.64v11.64h-3.76v-32.35h3.76v18.81l11.02-9.78h4.38l-11.55,10.75l11.9,12.57H490.24z
				"/>
		</g>
		<g>
			<path class="st1" d="M206.89,229.83c7.29,0,13.22,5.93,13.22,13.22s-5.93,13.22-13.22,13.22c-7.29,0-13.22-5.93-13.22-13.22
				S199.61,229.83,206.89,229.83L206.89,229.83z M206.89,227.43c-8.62,0-15.62,6.99-15.62,15.62s6.99,15.62,15.62,15.62
				c8.62,0,15.62-6.99,15.62-15.62S215.52,227.43,206.89,227.43L206.89,227.43z"/>
			<path class="st1" d="M203.17,237.63c4.54,0,8.24,3.7,8.24,8.24s-3.7,8.24-8.24,8.24s-8.24-3.7-8.24-8.24
				S198.63,237.63,203.17,237.63L203.17,237.63z M203.17,235.23c-5.88,0-10.64,4.76-10.64,10.64s4.76,10.64,10.64,10.64
				s10.64-4.76,10.64-10.64S209.05,235.23,203.17,235.23L203.17,235.23z"/>
			<path class="st1" d="M199.25,244.81c1.95,0,3.54,1.59,3.54,3.54s-1.59,3.54-3.54,3.54s-3.54-1.59-3.54-3.54
				S197.29,244.81,199.25,244.81L199.25,244.81z M199.25,242.41c-3.28,0-5.94,2.66-5.94,5.94s2.66,5.94,5.94,5.94
				c3.28,0,5.94-2.66,5.94-5.94S202.53,242.41,199.25,242.41L199.25,242.41z"/>
		</g>
		<g>
			<g>
				<g>
					<g>
						<path class="st2" d="M291.14,77.24c0,0.15,0,0.29-0.01,0.44c-0.1,2.59-1.05,4.97-2.6,6.85c0,0-0.01,0-0.01,0.01
							c-2.1,2.54-5.27,4.16-8.83,4.16c-3.56,0-6.73-1.62-8.83-4.16c0-0.01-0.01-0.01-0.01-0.01c-1.54-1.87-2.5-4.24-2.6-6.82v-0.03
							c-0.01-0.15-0.01-0.29-0.01-0.44c0-6.32,5.12-11.45,11.45-11.45C286.02,65.79,291.14,70.92,291.14,77.24z"/>
						<g>
							<path class="st1" d="M287.34,131.87c-1.89-6.91-2.91-14.19-2.91-21.7c0-7.16,0.92-14.1,2.64-20.71
								c-2.2,1.33-4.74,2.05-7.38,2.05c-2.64,0-5.18-0.72-7.38-2.05c1.72,6.61,2.64,13.55,2.64,20.71c0,7.52-1.01,14.79-2.91,21.7
								c2.26-1.44,4.91-2.24,7.64-2.24C282.43,129.64,285.08,130.44,287.34,131.87z"/>
						</g>
						<path class="st2" d="M291.14,143.91c0,6.32-5.12,11.45-11.45,11.45c-6.32,0-11.45-5.12-11.45-11.45
							c0-0.48,0.03-0.95,0.08-1.41l0.01-0.01v-0.01c0.24-1.93,0.96-3.71,2.04-5.23v-0.01c2.08-2.9,5.47-4.8,9.32-4.8
							c3.84,0,7.24,1.89,9.32,4.8c1.08,1.51,1.8,3.29,2.04,5.23C291.11,142.95,291.14,143.42,291.14,143.91z"/>
					</g>
					<g>
						<path class="st2" d="M225.72,143.11c0,6.32-5.12,11.45-11.45,11.45c-2.97,0-5.67-1.13-7.7-2.98c-0.1-0.09-0.2-0.18-0.29-0.28
							c-0.16-0.16-0.33-0.33-0.48-0.5c-1.85-2.03-2.98-4.74-2.98-7.7c0-0.14,0-0.28,0.01-0.42c0.09-2.61,1.06-5,2.62-6.88v-0.01
							c2.1-2.53,5.28-4.14,8.82-4.14c3.57,0,6.76,1.63,8.86,4.19c1.53,1.85,2.47,4.2,2.58,6.76v0.02
							C225.71,142.79,225.72,142.95,225.72,143.11z"/>
						<g>
							<path class="st1" d="M206.9,89.46c1.72,6.61,2.64,13.55,2.64,20.71c0,7.16-0.92,14.1-2.65,20.72
								c2.2-1.33,4.74-2.05,7.38-2.05c2.65,0,5.2,0.73,7.4,2.07c-1.73-6.62-2.65-13.57-2.65-20.74c0-7.16,0.92-14.1,2.64-20.72
								c-2.2,1.33-4.74,2.06-7.39,2.06C211.63,91.51,209.1,90.79,206.9,89.46z"/>
						</g>
						<path class="st2" d="M225.72,77.24c0,0.16-0.01,0.31-0.01,0.47c-0.1,2.58-1.05,4.94-2.59,6.8c-2.1,2.55-5.28,4.18-8.84,4.18
							c-3.55,0-6.71-1.61-8.82-4.14c-1.56-1.89-2.54-4.28-2.63-6.91c-0.01-0.14-0.01-0.28-0.01-0.41c0-2.97,1.13-5.67,2.98-7.7
							c0.14-0.15,0.27-0.29,0.41-0.42c2.07-2.06,4.92-3.33,8.07-3.33C220.59,65.79,225.72,70.92,225.72,77.24z"/>
					</g>
					<g>
						<g>
							<path class="st1" d="M245.77,101.49c-5.78-7.54-11.53-15.46-17.25-23.7l0,0.03c-0.12,3.14-1.24,6.07-3.23,8.49
								c-0.91,1.11-1.97,2.05-3.13,2.83c5.93,6.3,11.94,13.26,18.01,20.76c0.72-0.88,1.43-1.78,2.09-2.72
								C243.57,105.35,244.73,103.45,245.77,101.49z"/>
							<path class="st1" d="M253.69,111.55c-0.65,0.8-1.28,1.61-1.88,2.45c-1.37,1.92-2.59,3.93-3.67,6
								c5.72,7.43,11.49,15.28,17.29,23.48c0.01-0.45,0.04-0.89,0.09-1.32l0.12-0.96l0.05-0.05c0.33-1.67,0.96-3.29,1.86-4.74v-0.06
								l0.53-0.74c0.98-1.36,2.18-2.53,3.53-3.45C265.6,125.77,259.63,118.88,253.69,111.55z"/>
						</g>
						<path class="st2" d="M265.7,97.17c2.37-3.32,1.6-7.93-1.71-10.3c-3.32-2.37-7.93-1.6-10.3,1.71
							c-0.18,0.25-0.34,0.51-0.48,0.77l0,0.01l0,0.01c-0.6,1.1-0.89,2.31-0.89,3.51l0,0c0,2.3,1.07,4.57,3.09,6.01
							c2.02,1.44,4.51,1.72,6.69,0.97c1.13-0.39,2.18-1.05,3.03-1.98C265.33,97.67,265.52,97.43,265.7,97.17z"/>
						<g>
							<path class="st1" d="M253.76,101.18c-1.31-0.94-2.36-2.17-3.09-3.56c-1.55,3.88-3.57,7.64-6.11,11.18
								c-2.41,3.38-5.15,6.37-8.14,9c1.51,0.26,2.94,0.85,4.21,1.75c1.27,0.91,2.29,2.08,3.02,3.41c1.52-3.67,3.47-7.24,5.88-10.61
								c2.53-3.55,5.43-6.68,8.59-9.39C256.56,102.73,255.07,102.12,253.76,101.18z"/>
						</g>
						<path class="st2" d="M240.7,132.16c0.05-0.08,0.11-0.15,0.16-0.23c0.92-1.4,1.31-3,1.2-4.57c0,0,0,0,0-0.01
							c-0.15-2.12-1.21-4.16-3.07-5.49c-1.87-1.33-4.14-1.68-6.19-1.13c0,0-0.01,0-0.01,0c-1.51,0.4-2.9,1.29-3.92,2.6l-0.01,0.01
							c-0.06,0.07-0.12,0.15-0.17,0.23c-2.37,3.32-1.6,7.93,1.71,10.3C233.72,136.25,238.33,135.48,240.7,132.16z"/>
					</g>
				</g>
				<g>
					<polygon class="st3" points="314.41,131.02 314.41,131.03 322.89,132.42 322.89,132.42 					"/>
					<g>
						<path class="st1" d="M235.54,180.12c-38.35-6.31-64.41-42.64-58.11-80.98c6.31-38.35,42.64-64.41,80.98-58.11
							c27.81,4.57,49.15,24.94,56.38,50.42l9.19,1.51c-6.98-30.33-31.62-55-64.18-60.35c-42.99-7.07-83.72,22.15-90.79,65.14
							c-7.07,42.99,22.15,83.72,65.14,90.79c39.91,6.56,77.84-18.16,88.74-56.12l-8.49-1.4
							C304.33,164.34,270.8,185.92,235.54,180.12z"/>
						<path class="st1" d="M322.9,132.42c0.54-1.92,1.02-5.05,1.09-7.63l-9.06-0.05l-15.94-0.08l-5.39-0.03l-0.04,7.63l20.75,0.11
							c0,0,0,0,0,0L322.9,132.42z"/>
					</g>
				</g>
			</g>
			<g>
				<path class="st2" d="M245.97,204.29c-51.76,0-93.72-41.96-93.72-93.72c0-51.76,41.96-93.72,93.72-93.72
					c36.89,0,68.79,21.33,84.08,52.31h8.54c-15.88-35.37-51.4-60.08-92.62-60.08c-55.96,0-101.48,45.53-101.48,101.48
					s45.53,101.48,101.48,101.48c41.21,0,76.74-24.71,92.62-60.08h-8.54C314.76,182.97,282.86,204.29,245.97,204.29z"/>
			</g>
		</g>
	</g>
</g>
<g id="Layer_2">
</g>
</svg>
